# xmcd
#
# Track frame offsets: 
#        150
#        12812
#        24438
#        33192
#
# Disc length: 679 seconds
#
# Revision: 0
# Processed by: cddbd v1.5.2PL0 Copyright (c) Steve Scherf et al.
# Submitted via: ExactAudioCopy v1.3
#
DISCID=1e02a504
DTITLE=Fightmilk - Pity Party
DYEAR=2017
DGENRE=Punk
TTITLE0=Pity Party
TTITLE1=Bank Of Mum and Dad
TTITLE2=Chaperone
TTITLE3=NYE
EXTD=
EXTT0=
EXTT1=
EXTT2=
EXTT3=
PLAYORDER=
